<svg xmlns="http://www.w3.org/2000/svg" viewBox="0 0 512 512" role="img" aria-label="Lotus flower icon">
  <rect width="512" height="512" rx="112" fill="#12121f"/>
  <path d="M256 86c38 52 52 103 42 154-6 31-21 61-42 90-21-29-36-59-42-90-10-51 4-102 42-154Z" fill="#f7c7df"/>
  <path d="M151 150c57 21 95 55 113 101 12 31 14 64 5 101-38-9-68-27-91-52-34-38-43-88-27-150Z" fill="#f19ac8"/>
  <path d="M361 150c16 62 7 112-27 150-23 25-53 43-91 52-9-37-7-70 5-101 18-46 56-80 113-101Z" fill="#f19ac8"/>
  <path d="M82 248c64-4 114 11 149 45 24 23 39 53 45 90-37 5-70 0-99-17-43-25-74-64-95-118Z" fill="#d96fb3"/>
  <path d="M430 248c-21 54-52 93-95 118-29 17-62 22-99 17 6-37 21-67 45-90 35-34 85-49 149-45Z" fill="#d96fb3"/>
  <path d="M121 379c43-44 90-64 141-59 51-5 98 15 141 59-43 31-92 47-147 47s-104-16-135-47Z" fill="#8ce8bc"/>
  <circle cx="256" cy="323" r="28" fill="#ffe5a8"/>
</svg>
